<svg xmlns="http://www.w3.org/2000/svg" viewBox="97 80 830 1040"><path d="M245 1120q-14 0-24-9.75c-6.667-6.5-10-14.58-10-24.25q0-7.995 4.5-18.75t18.5-33.75L435.5 704H135q-15.5 0-26.75-10.25T97 668q0-20 15.5-32L782 95q8.5-7 15.75-11T812 80q20.5 0 31.25 17t-1.75 37.5l-220 359H889q16 0 27 10t11 26q0 19.5-15 32L288.5 1096q-15.5 13.5-25.25 18.75T245 1120m17-50.5L883 537q1.5-1 1.25-2.25T882 533.5H553.5l243-397.5q1-2 0-2.75t-3 .75L141 661q-1.5 1-1.25 2t1.75 1h362L258 1066c-1.333 2.33-1.5 3.92-.5 4.75s2.5.42 4.5-1.25"/></svg>